{
    "asset" : {
        "generator" : "Khronos glTF Blender I/O v1.0.5",
        "version" : "2.0"
    },
    "scene" : 0,
    "scenes" : [
        {
            "name" : "Scene",
            "nodes" : [
                1,
                2,
                3
            ]
        }
    ],
    "nodes" : [
        {
            "camera" : 0,
            "name" : "Camera_Orientation",
            "rotation" : [
                -0.7071067690849304,
                0,
                0,
                0.7071067690849304
            ]
        },
        {
            "children" : [
                0
            ],
            "name" : "Camera",
            "rotation" : [
                0.7071067690849304,
                0,
                0,
                0.7071067690849304
            ],
            "translation" : [
                0,
                -3.80558705329895,
                -23.08568572998047
            ]
        },
        {
            "name" : "Light",
            "translation" : [
                -18.26265525817871,
                2.2948217391967773,
                -24.16157341003418
            ]
        },
        {
            "mesh" : 0,
            "name" : "Mountain",
            "rotation" : [
                0,
                -0.3826834559440613,
                0,
                0.9238795042037964
            ]
        }
    ],
    "cameras" : [
        {
            "name" : "Camera.002",
            "perspective" : {
                "yfov" : 0.5631968779732008,
                "zfar" : 1000,
                "znear" : 0.10000000149011612
            },
            "type" : "perspective"
        }
    ],
    "animations" : [
        {
            "channels" : [
                {
                    "sampler" : 0,
                    "target" : {
                        "node" : 1,
                        "path" : "translation"
                    }
                },
                {
                    "sampler" : 1,
                    "target" : {
                        "node" : 1,
                        "path" : "rotation"
                    }
                },
                {
                    "sampler" : 2,
                    "target" : {
                        "node" : 1,
                        "path" : "scale"
                    }
                }
            ],
            "name" : "CameraAction.001",
            "samplers" : [
                {
                    "input" : 12,
                    "interpolation" : "LINEAR",
                    "output" : 13
                },
                {
                    "input" : 12,
                    "interpolation" : "LINEAR",
                    "output" : 14
                },
                {
                    "input" : 12,
                    "interpolation" : "LINEAR",
                    "output" : 15
                }
            ]
        }
    ],
    "materials" : [
        {
            "doubleSided" : true,
            "name" : "Material.003",
            "pbrMetallicRoughness" : {
                "baseColorFactor" : [
                    0.014032481238245964,
                    0.014032481238245964,
                    0.014032481238245964,
                    1
                ],
                "metallicFactor" : 0,
                "roughnessFactor" : 0
            }
        }
    ],
    "meshes" : [
        {
            "name" : "Cube.001",
            "primitives" : [
                {
                    "attributes" : {
                        "POSITION" : 0,
                        "NORMAL" : 1,
                        "TEXCOORD_0" : 2
                    },
                    "indices" : 3,
                    "material" : 0
                },
                {
                    "attributes" : {
                        "POSITION" : 4,
                        "NORMAL" : 5,
                        "TEXCOORD_0" : 6
                    },
                    "indices" : 7,
                    "material" : 0
                },
                {
                    "attributes" : {
                        "POSITION" : 8,
                        "NORMAL" : 9,
                        "TEXCOORD_0" : 10
                    },
                    "indices" : 11,
                    "material" : 0
                }
            ]
        }
    ],
    "accessors" : [
        {
            "bufferView" : 0,
            "componentType" : 5126,
            "count" : 65535,
            "max" : [
                26.29471778869629,
                -1.2294209003448486,
                13.118880271911621
            ],
            "min" : [
                -25.598407745361328,
                -8.488395690917969,
                -26.294713973999023
            ],
            "type" : "VEC3"
        },
        {
            "bufferView" : 1,
            "componentType" : 5126,
            "count" : 65535,
            "type" : "VEC3"
        },
        {
            "bufferView" : 2,
            "componentType" : 5126,
            "count" : 65535,
            "type" : "VEC2"
        },
        {
            "bufferView" : 3,
            "componentType" : 5123,
            "count" : 98301,
            "type" : "SCALAR"
        },
        {
            "bufferView" : 4,
            "componentType" : 5126,
            "count" : 23268,
            "max" : [
                24.348630905151367,
                1.210515022277832,
                26.29471778869629
            ],
            "min" : [
                -26.294713973999023,
                -7.817461013793945,
                10.565757751464844
            ],
            "type" : "VEC3"
        },
        {
            "bufferView" : 5,
            "componentType" : 5126,
            "count" : 23268,
            "type" : "VEC3"
        },
        {
            "bufferView" : 6,
            "componentType" : 5126,
            "count" : 23268,
            "type" : "VEC2"
        },
        {
            "bufferView" : 7,
            "componentType" : 5123,
            "count" : 34902,
            "type" : "SCALAR"
        },
        {
            "bufferView" : 8,
            "componentType" : 5126,
            "count" : 3,
            "max" : [
                22.338058471679688,
                -7.07699728012085,
                13.118880271911621
            ],
            "min" : [
                22.00296401977539,
                -7.120553970336914,
                12.76593017578125
            ],
            "type" : "VEC3"
        },
        {
            "bufferView" : 9,
            "componentType" : 5126,
            "count" : 3,
            "type" : "VEC3"
        },
        {
            "bufferView" : 10,
            "componentType" : 5126,
            "count" : 3,
            "type" : "VEC2"
        },
        {
            "bufferView" : 11,
            "componentType" : 5123,
            "count" : 3,
            "type" : "SCALAR"
        },
        {
            "bufferView" : 12,
            "componentType" : 5126,
            "count" : 501,
            "max" : [
                16.666666666666668
            ],
            "min" : [
                0
            ],
            "type" : "SCALAR"
        },
        {
            "bufferView" : 13,
            "componentType" : 5126,
            "count" : 501,
            "type" : "VEC3"
        },
        {
            "bufferView" : 14,
            "componentType" : 5126,
            "count" : 501,
            "type" : "VEC4"
        },
        {
            "bufferView" : 15,
            "componentType" : 5126,
            "count" : 501,
            "type" : "VEC3"
        }
    ],
    "bufferViews" : [
        {
            "buffer" : 0,
            "byteLength" : 786420,
            "byteOffset" : 0
        },
        {
            "buffer" : 0,
            "byteLength" : 786420,
            "byteOffset" : 786420
        },
        {
            "buffer" : 0,
            "byteLength" : 524280,
            "byteOffset" : 1572840
        },
        {
            "buffer" : 0,
            "byteLength" : 196602,
            "byteOffset" : 2097120
        },
        {
            "buffer" : 0,
            "byteLength" : 279216,
            "byteOffset" : 2293724
        },
        {
            "buffer" : 0,
            "byteLength" : 279216,
            "byteOffset" : 2572940
        },
        {
            "buffer" : 0,
            "byteLength" : 186144,
            "byteOffset" : 2852156
        },
        {
            "buffer" : 0,
            "byteLength" : 69804,
            "byteOffset" : 3038300
        },
        {
            "buffer" : 0,
            "byteLength" : 36,
            "byteOffset" : 3108104
        },
        {
            "buffer" : 0,
            "byteLength" : 36,
            "byteOffset" : 3108140
        },
        {
            "buffer" : 0,
            "byteLength" : 24,
            "byteOffset" : 3108176
        },
        {
            "buffer" : 0,
            "byteLength" : 6,
            "byteOffset" : 3108200
        },
        {
            "buffer" : 0,
            "byteLength" : 2004,
            "byteOffset" : 3108208
        },
        {
            "buffer" : 0,
            "byteLength" : 6012,
            "byteOffset" : 3110212
        },
        {
            "buffer" : 0,
            "byteLength" : 8016,
            "byteOffset" : 3116224
        },
        {
            "buffer" : 0,
            "byteLength" : 6012,
            "byteOffset" : 3124240
        }
    ],
    "buffers" : [
        {
            "byteLength" : 3130252,
            "uri" : "mountain.glb.bin"
        }
    ]
}
